<svg xmlns="http://www.w3.org/2000/svg" viewBox="0 0 128 128" role="img" aria-label="MagazynApp logo">
  <defs>
    <linearGradient id="g" x1="0" x2="1" y1="1" y2="0">
      <stop offset="0" stop-color="#0f172a" />
      <stop offset="1" stop-color="#0ea5e9" />
    </linearGradient>
  </defs>
  <rect width="128" height="128" rx="24" fill="url(#g)" />
  <path fill="#e0f2fe" d="M32 40c0-4.4 3.6-8 8-8h48c4.4 0 8 3.6 8 8v48c0 4.4-3.6 8-8 8H40c-4.4 0-8-3.6-8-8V40Zm12 10v28c0 2.2 1.8 4 4 4h32c2.2 0 4-1.8 4-4V50H44Zm0-6h40v-4c0-1.1-.9-2-2-2H46c-1.1 0-2 .9-2 2v4Z" />
  <path fill="#0ea5e9" d="M52 54h8v20h-8zm16 0h8v20h-8z" />
</svg>
